# xmcd CD database file
#
# Track frame offsets:
#	150
#	18668
#	33134
#	49467
#	69468
#	86242
#	101104
#	122805
#	144574
#	164397
#	181186
#	198151
#	217580
#	238491
#	254017
#	272537
#	290669
#	302476
#	323568
#
# Disc length: 4576 seconds
#
# Revision: 0
# Processed by: cddbd v1.5.2PL0 Copyright (c) Steve Scherf et al.
# Submitted via: CDex 1.50Beta7
#
DISCID=1911de13
DTITLE=Era - Mystic Collection
DYEAR=2003
DGENRE=New Age
TTITLE0=Looking for something
TTITLE1=Era
TTITLE2=The mass
TTITLE3=After time
TTITLE4=Don'u
TTITLE5=Cathar rhytm
TTITLE6=Mother
TTITLE7=Hymne
TTITLE8=Enae volare mezzo
TTITLE9=Ameno
TTITLE10=Divano
TTITLE11=Infant
TTITLE12=Omen sore
TTITLE13=Enae volare
TTITLE14=Devore amante
TTITLE15=Misere mani
TTITLE16=In fine
TTITLE17=Sentence
TTITLE18=Madona
EXTD=YEAR: 2003
EXTT0=
EXTT1=
EXTT2=
EXTT3=
EXTT4=
EXTT5=
EXTT6=
EXTT7=
EXTT8=
EXTT9=
EXTT10=
EXTT11=
EXTT12=
EXTT13=
EXTT14=
EXTT15=
EXTT16=
EXTT17=
EXTT18=
PLAYORDER=
